<svg width="16" height="17" viewBox="0 0 16 17" fill="none" xmlns="http://www.w3.org/2000/svg">
<path fill-rule="evenodd" clip-rule="evenodd" d="M8 2.02197C11.3137 2.02197 14 4.73772 14 8.08776C14 11.4378 11.3137 14.1536 8 14.1536C4.68629 14.1536 2 11.4378 2 8.08776C2 4.73772 4.68629 2.02197 8 2.02197ZM10.2929 5.35097L7 8.67997L5.70711 7.3729C5.31658 6.9781 4.68342 6.9781 4.29289 7.3729C3.90237 7.76771 3.90237 8.40782 4.29289 8.80263L6.29289 10.8246C6.68342 11.2194 7.31658 11.2194 7.70711 10.8246L11.7071 6.78069C12.0976 6.38589 12.0976 5.74578 11.7071 5.35097C11.3166 4.95617 10.6834 4.95617 10.2929 5.35097Z" fill="#219653"/>
</svg>
