<svg width="32" height="32" viewBox="0 0 32 32" fill="none" xmlns="http://www.w3.org/2000/svg">
<path fill-rule="evenodd" clip-rule="evenodd" d="M16 5.33333C18.6673 5.33333 21.1313 6.20355 23.1236 7.67555L23.0572 7.60948C22.5365 7.08878 22.5365 6.24456 23.0572 5.72386C23.5378 5.24321 24.2941 5.20624 24.8172 5.61294L24.9428 5.72386L27.6095 8.39052C28.1302 8.91122 28.1302 9.75544 27.6095 10.2761C27.1288 10.7568 26.3725 10.7938 25.8495 10.3871L25.7239 10.2761L25.6578 10.2097C27.1298 12.2021 28 14.6661 28 17.3333C28 23.9608 22.6274 29.3333 16 29.3333C9.37258 29.3333 4 23.9608 4 17.3333C4 10.7059 9.37258 5.33333 16 5.33333ZM16 8C10.8453 8 6.66667 12.1787 6.66667 17.3333C6.66667 22.488 10.8453 26.6667 16 26.6667C21.1547 26.6667 25.3333 22.488 25.3333 17.3333C25.3333 12.1787 21.1547 8 16 8ZM16 10.6667C16.7364 10.6667 17.3333 11.2636 17.3333 12V17.3333C17.3333 18.0697 16.7364 18.6667 16 18.6667C15.2636 18.6667 14.6667 18.0697 14.6667 17.3333V12C14.6667 11.2636 15.2636 10.6667 16 10.6667ZM20 2.66667C20.7364 2.66667 21.3333 3.26362 21.3333 4C21.3333 4.73638 20.7364 5.33333 20 5.33333H12C11.2636 5.33333 10.6667 4.73638 10.6667 4C10.6667 3.26362 11.2636 2.66667 12 2.66667H20Z" fill="#1F2528"/>
</svg>
