<svg width="32" height="32" viewBox="0 0 32 32" fill="none" xmlns="http://www.w3.org/2000/svg">
<path fill-rule="evenodd" clip-rule="evenodd" d="M10.8943 5.33332L10.9836 5.10367C11.5922 3.67121 13.0121 2.66666 14.6667 2.66666C16.4083 2.66666 17.8899 3.77973 18.4391 5.33332H22.6667C24.8758 5.33332 26.6667 7.12418 26.6667 9.33332V13.5609C28.2203 14.11 29.3333 15.5917 29.3333 17.3333C29.3333 19.0573 28.2392 20.5376 26.6667 21.0975V25.3333C26.6667 27.5425 24.8758 29.3333 22.6667 29.3333H18.6667C17.9829 29.3333 17.4193 28.8186 17.3423 28.1555L17.326 27.801C17.2242 26.4212 16.0725 25.3333 14.6667 25.3333C13.1939 25.3333 12 26.5272 12 28C12 28.7364 11.403 29.3333 10.6667 29.3333H6.66667C4.45753 29.3333 2.66667 27.5425 2.66667 25.3333V21.3333C2.66667 20.6495 3.18139 20.086 3.84451 20.009L4.19902 19.9927C5.57883 19.8909 6.66667 18.7391 6.66667 17.3333C6.66667 15.8606 5.47276 14.6667 4 14.6667C3.26362 14.6667 2.66667 14.0697 2.66667 13.3333V9.33332C2.66667 7.12418 4.45753 5.33332 6.66667 5.33332H10.8943ZM22.6667 26.6667C23.403 26.6667 24 26.0697 24 25.3333V20C24 19.2827 24.5675 18.6939 25.2844 18.6676L25.4342 18.663C26.126 18.6119 26.6667 18.0324 26.6667 17.3333C26.6667 16.6495 26.1519 16.086 25.4888 16.009L25.1778 15.991C24.5147 15.914 24 15.3504 24 14.6667V9.33332C24 8.59694 23.403 7.99999 22.6667 7.99999H17.3333C16.6496 7.99999 16.086 7.48527 16.009 6.82215L15.991 6.51116C15.914 5.84804 15.3504 5.33332 14.6667 5.33332C13.9829 5.33332 13.4193 5.84804 13.3423 6.51116L13.3244 6.82215C13.2473 7.48527 12.6838 7.99999 12 7.99999H6.66667C5.93029 7.99999 5.33333 8.59694 5.33333 9.33332V12.168C7.63364 12.7601 9.33333 14.8482 9.33333 17.3333C9.33333 19.8184 7.63364 21.9066 5.33333 22.4986V25.3333C5.33333 26.0697 5.93029 26.6667 6.66667 26.6667H9.50136C10.0934 24.3664 12.1815 22.6667 14.6667 22.6667C17.0597 22.6667 19.0847 24.2428 19.7601 26.4136L19.832 26.6667H22.6667Z" fill="#1F2528"/>
</svg>
