<svg width="32" height="32" viewBox="0 0 32 32" fill="none" xmlns="http://www.w3.org/2000/svg">
<path fill-rule="evenodd" clip-rule="evenodd" d="M15.4586 2.78316C15.7541 2.6519 16.0853 2.63314 16.391 2.7269L16.5414 2.78316L28.5414 8.11487C29.024 8.3293 29.3299 8.80538 29.3334 9.32396L29.3252 9.48059L28.562 16.3494C28.1719 19.8605 26.2559 23.0139 23.3366 24.9788L22.9954 25.2002L16.7067 29.1307C16.3223 29.3709 15.8462 29.3976 15.4414 29.2107L15.2933 29.1307L9.00465 25.2002C6.00899 23.328 3.9965 20.2352 3.48979 16.7529L3.43803 16.3494L2.67483 9.48059C2.6165 8.9557 2.87324 8.4514 3.31926 8.18683L3.45862 8.11487L15.4586 2.78316ZM16 5.46066L5.43291 10.1557L6.08839 16.055C6.38978 18.7675 7.86214 21.2056 10.1071 22.7359L10.418 22.9389L16 26.4277L21.582 22.9389C23.8964 21.4924 25.4563 19.1094 25.8633 16.4231L25.9116 16.055L26.5671 10.1557L16 5.46066ZM18.9515 11.1763C19.4065 10.5973 20.2447 10.4967 20.8237 10.9516C21.3582 11.3716 21.485 12.1181 21.1435 12.6859L21.0484 12.8238L15.7151 19.4904C15.2565 20.0741 14.42 20.1638 13.8503 19.7211L13.7239 19.6095L11.0572 16.9428C10.5365 16.4221 10.5365 15.5779 11.0572 15.0572C11.5378 14.5766 12.2942 14.5396 12.8172 14.9463L12.9428 15.0572L14.5468 16.6611L18.9515 11.1763Z" fill="#1F2528"/>
</svg>
