<svg width="32" height="32" viewBox="0 0 32 32" fill="none" xmlns="http://www.w3.org/2000/svg">
<path d="M25.128 2.66667H6.87201C5.50968 2.64771 4.18922 3.13741 3.16869 4.04009C2.14815 4.94277 1.50088 6.19354 1.35335 7.548C1.27083 8.55447 1.47576 9.56368 1.94429 10.4583C2.41282 11.3528 3.1257 12.096 4.00001 12.6013V25.3333C4.00001 26.3942 4.42144 27.4116 5.17159 28.1618C5.92173 28.9119 6.93915 29.3333 8.00001 29.3333H24C25.0609 29.3333 26.0783 28.9119 26.8284 28.1618C27.5786 27.4116 28 26.3942 28 25.3333V12.6013C28.8743 12.096 29.5872 11.3528 30.0557 10.4583C30.5243 9.56368 30.7292 8.55447 30.6467 7.548C30.4991 6.19354 29.8519 4.94277 28.8313 4.04009C27.8108 3.13741 26.4903 2.64771 25.128 2.66667ZM20.8867 10.4987C20.6273 10.5909 20.4028 10.7611 20.2441 10.986C20.0853 11.2109 20.0001 11.4794 20 11.7547V25.3333C20 25.687 19.8595 26.0261 19.6095 26.2761C19.3594 26.5262 19.0203 26.6667 18.6667 26.6667H8.00001C7.64639 26.6667 7.30725 26.5262 7.0572 26.2761C6.80716 26.0261 6.66668 25.687 6.66668 25.3333V11.7547C6.66662 11.4794 6.58136 11.2109 6.4226 10.986C6.26385 10.7611 6.03938 10.5909 5.78001 10.4987C5.2222 10.3072 4.74466 9.93431 4.42369 9.43956C4.10271 8.9448 3.95683 8.35674 4.00935 7.76933C4.09932 7.08053 4.44213 6.44976 4.97116 5.99958C5.5002 5.54939 6.17769 5.31193 6.87201 5.33333H19.7947C20.489 5.31193 21.1665 5.54939 21.6955 5.99958C22.2246 6.44976 22.5674 7.08053 22.6573 7.76933C22.7099 8.35674 22.564 8.9448 22.243 9.43956C21.922 9.93431 21.4445 10.3072 20.8867 10.4987ZM26.22 10.4987C25.9606 10.5909 25.7362 10.7611 25.5774 10.986C25.4187 11.2109 25.3334 11.4794 25.3333 11.7547V25.3333C25.3333 25.687 25.1929 26.0261 24.9428 26.2761C24.6928 26.5262 24.3536 26.6667 24 26.6667H22.4387C22.4787 26.552 22.5013 26.4293 22.532 26.3107C22.5507 26.2347 22.576 26.1627 22.5907 26.084C22.6398 25.8368 22.6652 25.5854 22.6667 25.3333V12.6013C23.541 12.096 24.2539 11.3528 24.7224 10.4583C25.1909 9.56368 25.3959 8.55447 25.3133 7.548C25.2806 7.18004 25.2068 6.81689 25.0933 6.46533C25.0573 6.348 25.0027 6.24 24.96 6.12667C24.8754 5.9015 24.7747 5.68272 24.6587 5.472C24.6333 5.428 24.6213 5.37733 24.5947 5.33867H25.128C25.8223 5.31727 26.4998 5.55473 27.0289 6.00491C27.5579 6.4551 27.9007 7.08586 27.9907 7.77467C28.042 8.36121 27.8955 8.94804 27.5746 9.44169C27.2537 9.93534 26.7769 10.3074 26.22 10.4987Z" fill="#1F2528"/>
</svg>
