<svg width="32" height="32" viewBox="0 0 32 32" fill="none" xmlns="http://www.w3.org/2000/svg">
<path fill-rule="evenodd" clip-rule="evenodd" d="M15.258 25.9711L9.48711 29.1416C8.70761 29.5698 7.74349 29.2566 7.33368 28.4421C7.17049 28.1177 7.11418 27.7461 7.17346 27.3849L8.2756 20.6698C8.36431 20.1292 8.19282 19.5777 7.817 19.1948L3.14829 14.4391C2.51766 13.7968 2.50476 12.7418 3.11947 12.0828C3.36425 11.8203 3.68499 11.6496 4.03203 11.5969L10.484 10.6171C11.0034 10.5383 11.4524 10.1974 11.6846 9.70557L14.5701 3.59591C14.9598 2.77064 15.916 2.43181 16.7057 2.8391C17.0202 3.00129 17.2747 3.26728 17.4299 3.59591L20.3153 9.70557C20.5476 10.1974 20.9966 10.5383 21.5159 10.6171L27.9679 11.5969C28.8394 11.7292 29.4433 12.5748 29.3166 13.4855C29.2662 13.8482 29.1028 14.1833 28.8517 14.4391L24.183 19.1948C23.8071 19.5777 23.6356 20.1292 23.7244 20.6698L24.8265 27.3849C24.9754 28.292 24.3924 29.1534 23.5244 29.309C23.1788 29.371 22.8232 29.3121 22.5128 29.1416L16.742 25.9711C16.2775 25.7159 15.7225 25.7159 15.258 25.9711ZM13.9739 23.6339C15.2381 22.9394 16.7618 22.9394 18.026 23.6339L21.8536 25.7368L21.0929 21.1017C20.8673 19.7273 21.3049 18.32 22.28 17.3267L25.6088 13.9359L21.1156 13.2536C19.7091 13.04 18.5116 12.1308 17.904 10.8443L16 6.81266L14.0959 10.8443C13.4884 12.1308 12.2909 13.04 10.8844 13.2536L6.39113 13.9359L9.71995 17.3267C10.6951 18.32 11.1326 19.7273 10.9071 21.1017L10.1463 25.7368L13.9739 23.6339Z" fill="#1F2528"/>
</svg>
