<svg width="32" height="32" viewBox="0 0 32 32" fill="none" xmlns="http://www.w3.org/2000/svg">
<circle cx="16" cy="16" r="16" fill="#7E50A1"/>
<path d="M21.2785 10.2122C20.922 9.88383 19.479 8.83667 16.2619 8.82267C16.2619 8.82267 12.4693 8.59529 10.6221 10.2909C9.59466 11.3183 9.23254 12.8258 9.19323 14.6926C9.15391 16.5595 9.10619 20.0573 12.4777 21.0062H12.4805L12.4777 22.4547C12.4777 22.4547 12.4553 23.0414 12.8427 23.1594C13.3087 23.3054 13.5838 22.859 14.0301 22.3789C14.2744 22.1151 14.6112 21.7277 14.8667 21.4329C17.1743 21.6266 18.9457 21.183 19.1478 21.1185C19.6138 20.9669 22.2498 20.63 22.6765 17.1322C23.12 13.522 22.4632 11.2425 21.2785 10.2122ZM21.6687 16.8683C21.3066 19.7878 19.1702 19.9731 18.7772 20.0994C18.6088 20.1527 17.0508 20.5402 15.0941 20.4139C15.0941 20.4139 13.6343 22.174 13.1795 22.6316C13.0308 22.7804 12.8679 22.7663 12.8708 22.4715C12.8708 22.2779 12.882 20.0658 12.882 20.0658C12.8792 20.0658 12.8792 20.0658 12.882 20.0658C10.0242 19.2741 10.1926 16.2956 10.2235 14.7375C10.2544 13.1795 10.5491 11.9022 11.4194 11.0432C12.983 9.62554 16.203 9.83611 16.203 9.83611C18.9232 9.84733 20.2258 10.667 20.529 10.9421C21.5311 11.8012 22.0421 13.8561 21.6687 16.8683ZM17.7666 14.6C17.7778 14.8414 17.4157 14.8583 17.4045 14.6168C17.3736 13.9992 17.0844 13.6989 16.4893 13.6652C16.2479 13.6511 16.2703 13.289 16.5089 13.3031C17.2922 13.3452 17.7273 13.7943 17.7666 14.6ZM18.3365 14.9172C18.3645 13.7269 17.6207 12.7949 16.2086 12.6911C15.9699 12.6742 15.9952 12.3121 16.2339 12.3289C17.8621 12.4469 18.7295 13.5669 18.6986 14.9256C18.6958 15.167 18.3309 15.1559 18.3365 14.9172ZM19.6559 15.2934C19.6587 15.5348 19.2938 15.5376 19.2938 15.2962C19.2769 13.0083 17.7526 11.7619 15.9026 11.7478C15.6639 11.745 15.6639 11.3857 15.9026 11.3857C17.9715 11.3997 19.6363 12.8286 19.6559 15.2934ZM19.3387 18.0473V18.0529C19.0355 18.5863 18.4684 19.1759 17.8845 18.9878L17.8789 18.9793C17.2865 18.8137 15.8914 18.0951 15.0099 17.3932C14.5551 17.0339 14.1396 16.61 13.8196 16.2029C13.5304 15.8408 13.2385 15.4113 12.955 14.8948C12.357 13.8139 12.2251 13.3311 12.2251 13.3311C12.037 12.7472 12.6237 12.1801 13.1599 11.877H13.1655C13.4238 11.7422 13.6708 11.7871 13.8364 11.9864C13.8364 11.9864 14.1846 12.4018 14.3333 12.6068C14.4737 12.7977 14.6618 13.1037 14.76 13.2749C14.9313 13.5809 14.8246 13.8925 14.6562 14.0216L14.3193 14.2911C14.1481 14.4287 14.1705 14.6841 14.1705 14.6841C14.1705 14.6841 14.6702 16.5734 16.537 17.0507C16.537 17.0507 16.7925 17.0732 16.93 16.9019L17.1996 16.565C17.3287 16.3966 17.6403 16.2899 17.9463 16.4612C18.359 16.6942 18.8839 17.0563 19.232 17.3848C19.4285 17.5448 19.4734 17.7891 19.3387 18.0473Z" fill="white"/>
</svg>
