<svg width="32" height="32" viewBox="0 0 32 32" fill="none" xmlns="http://www.w3.org/2000/svg">
<circle cx="16" cy="16" r="16" fill="#5181B8"/>
<g clip-path="url(#clip0)">
<path d="M23.3373 18.8071C22.8609 18.2357 22.3003 17.7481 21.7699 17.2302C21.2913 16.7635 21.2612 16.4927 21.6458 15.954C22.0657 15.366 22.5172 14.8006 22.9408 14.2153C23.3363 13.6683 23.7405 13.1228 23.9486 12.4678C24.0806 12.0512 23.9639 11.8671 23.5366 11.7942C23.463 11.7814 23.3869 11.7807 23.3119 11.7807L20.7768 11.7777C20.4646 11.7731 20.292 11.9092 20.1816 12.186C20.0325 12.56 19.8788 12.9338 19.7012 13.2947C19.2983 14.1132 18.8483 14.9043 18.2174 15.5741C18.0783 15.7219 17.9244 15.9086 17.6919 15.8316C17.4011 15.7255 17.3154 15.2463 17.3202 15.0843L17.3177 12.1583C17.2613 11.7403 17.1686 11.5539 16.7536 11.4727L14.1202 11.4732C13.7687 11.4732 13.5925 11.609 13.4048 11.8288C13.2965 11.9558 13.2638 12.0382 13.4863 12.0803C13.9234 12.1633 14.1696 12.4461 14.235 12.8844C14.3398 13.5846 14.3325 14.2876 14.2721 14.9906C14.2544 15.1959 14.2191 15.4007 14.1376 15.5924C14.0103 15.8936 13.8047 15.955 13.5346 15.7696C13.29 15.6018 13.1182 15.365 12.9501 15.1273C12.3185 14.2349 11.8146 13.2725 11.4038 12.2612C11.285 11.9691 11.0803 11.792 10.7707 11.7872C10.0101 11.7751 9.2494 11.7731 8.48883 11.7879C8.03119 11.7965 7.89473 12.0187 8.0811 12.4335C8.90949 14.2762 9.83156 16.0676 11.0352 17.6995C11.6531 18.537 12.3626 19.2763 13.2792 19.8003C14.318 20.3942 15.4363 20.573 16.614 20.5179C17.1655 20.4921 17.3311 20.3486 17.3567 19.799C17.3739 19.4229 17.4165 19.049 17.6021 18.7111C17.7841 18.3795 18.0599 18.3163 18.3777 18.5226C18.5367 18.6259 18.6707 18.7574 18.7972 18.896C19.1076 19.2355 19.4069 19.5854 19.7291 19.9135C20.1332 20.3248 20.6119 20.5677 21.2137 20.5181L23.5437 20.5186C23.9191 20.494 24.1138 20.0338 23.8982 19.6148C23.7468 19.3213 23.5482 19.06 23.3373 18.8071Z" fill="white"/>
</g>
<defs>
<clipPath id="clip0">
<rect width="16" height="16" fill="white" transform="translate(8 8)"/>
</clipPath>
</defs>
</svg>
