<svg width="32" height="32" viewBox="0 0 32 32" fill="none" xmlns="http://www.w3.org/2000/svg">
<circle cx="16" cy="16" r="16" fill="#39AA3F"/>
<path d="M24 15.7942C24 20.0985 20.4835 23.5878 16.1448 23.5878C14.7679 23.5878 13.4745 23.2357 12.3486 22.619L8 24L9.41755 19.8173C8.70278 18.6434 8.29113 17.2649 8.29113 15.7937C8.29165 11.4894 11.8071 8 16.1458 8C20.484 8.00104 24 11.4899 24 15.7942ZM16.1443 9.24277C12.5031 9.24277 9.5412 12.1822 9.5412 15.7957C9.5412 17.2295 10.0087 18.5568 10.7991 19.6367L9.97476 22.0696L12.5114 21.2635C13.5549 21.948 14.8034 22.3466 16.1443 22.3466C19.7854 22.3466 22.7484 19.4077 22.7484 15.7942C22.7494 12.1822 19.786 9.24277 16.1443 9.24277ZM20.1115 17.5895C20.0625 17.5107 19.9341 17.4627 19.7421 17.3667C19.5507 17.2707 18.6027 16.8089 18.4268 16.7463C18.2495 16.6822 18.1211 16.6498 17.9928 16.8413C17.866 17.0328 17.4966 17.4627 17.3834 17.591C17.2712 17.7189 17.159 17.735 16.9665 17.6406C16.774 17.5435 16.1531 17.3432 15.4175 16.6926C14.8451 16.1855 14.4585 15.561 14.3469 15.3695C14.2337 15.1785 14.3354 15.0752 14.4309 14.9803C14.517 14.8942 14.6234 14.757 14.7199 14.6448C14.8164 14.5337 14.8483 14.4549 14.9124 14.3271C14.9756 14.1992 14.9438 14.0881 14.8963 13.9916C14.8483 13.8956 14.4638 12.9565 14.3025 12.574C14.1424 12.1921 13.9822 12.2553 13.8695 12.2553C13.7573 12.2553 13.629 12.2396 13.5006 12.2396C13.3723 12.2396 13.1636 12.286 12.9878 12.4775C12.8119 12.669 12.3142 13.1307 12.3142 14.0709C12.3142 15.0121 13.0034 15.9194 13.0999 16.0467C13.197 16.1735 14.4325 18.166 16.3895 18.9308C18.3475 19.6952 18.3475 19.44 18.7002 19.4077C19.054 19.3754 19.8397 18.946 19.9993 18.5004C20.16 18.0528 20.16 17.6693 20.1115 17.5895Z" fill="white"/>
</svg>
